<?xml version="1.0" encoding="utf-8" ?><svg xmlns="http://www.w3.org/2000/svg" xmlns:xlink="http://www.w3.org/1999/xlink" width="649" height="183" viewBox="0 0 649 183"><path fill="#FE002B" d="M86.7786 21.2723L128.461 21.1764C138.804 21.1478 150.983 20.2796 161.005 22.8488C173.973 26.1733 180.419 40.0269 186.748 50.8992L196.907 68.1477C201.229 75.4941 207.495 85.4309 211.272 92.6421C210.115 95.477 207.817 99.0747 206.197 101.802L197.974 115.679L187.496 133.605C185.497 137.01 183.606 140.673 181.228 143.817C179.677 145.867 177.921 147.645 175.518 148.656C168.618 151.557 137.78 150.213 128.477 150.079C127.062 152.835 121.781 161.84 119.981 164.368C109.81 164.781 97.3073 164.41 86.7699 164.562C89.1398 159.409 94.4829 151.114 97.4948 145.893C104.641 133.481 111.85 121.105 119.121 108.766C120.823 105.856 127.163 94.4624 128.89 92.7933C139.122 92.3536 151.211 92.8137 161.746 92.6423C160.385 95.3922 156.908 100.332 155.04 103.331C151.686 108.717 148.055 116.419 144.698 121.421C151.292 120.945 159.177 122.91 162.991 117.616C168.34 110.192 173.455 100.446 177.994 92.45C177.722 92.0615 176.739 90.7081 176.584 90.3646C174.837 88.1641 172.377 83.3025 170.879 80.8061C166.692 73.8297 162.201 64.3976 157.628 57.8756C157.307 57.3789 156.961 56.8987 156.591 56.4367C147.637 45.4219 124.759 51.117 112.179 49.8276C110.16 49.6207 104.25 50.4539 103.11 48.979C102.05 47.6089 99.2356 42.5922 98.1367 40.7047C95.1335 35.5466 92.44 31.2177 89.1113 26.3061C88.6312 24.5895 87.8697 22.6945 86.7786 21.2723Z"/><path fill="#FF0E3D" d="M157.628 57.8756C158.151 57.8215 158.548 57.7779 159.068 57.6769C163.758 62.0584 173.122 82.8678 176.654 89.2382C176.674 89.274 176.598 90.2102 176.584 90.3646C174.837 88.1641 172.377 83.3025 170.879 80.8061C166.692 73.8297 162.201 64.3976 157.628 57.8756Z"/><path fill="#FF0E3D" d="M89.1113 26.3061L90.8044 26.6772L91.0723 26.011C93.9962 29.8056 96.2709 34.0593 97.8038 38.5989L98.1496 37.872C99.2116 38.7854 103.451 46.2496 103.572 47.7746L103.11 48.979C102.05 47.6089 99.2356 42.5922 98.1367 40.7047C95.1335 35.5466 92.44 31.2177 89.1113 26.3061Z"/><path fill="#FE002B" d="M74.4782 28.0056C75.2585 30.2785 81.0342 39.6202 82.5817 42.3198L103.083 77.8412C105.157 81.4194 110.297 89.5671 111.98 92.9352C106.011 101.91 100.789 111.433 95.4444 120.794L78.7569 149.626C77.4749 151.852 75.9217 155.309 74.9282 156.963L74.5074 156.952C73.7073 155.966 73.5269 155.66 72.9659 154.517C71.9933 154.027 60.6571 133.05 59.3208 130.269C59.2457 128.08 59.2632 127.091 59.492 124.893C60.6627 123.404 61.6867 122.077 62.5851 120.397C67.5429 111.124 74.5466 102.557 78.2345 92.673C76.5152 88.5901 74.5011 85.6324 72.7115 81.8398C72.4033 81.4109 72.1552 80.9761 71.8933 80.5193C67.8621 73.4871 62.3138 66.4072 58.8683 59.0693C59.1295 57.4103 59.105 54.4029 59.1975 52.5868C63.8598 47.725 70.8305 34.4547 74.4782 28.0056Z"/><path fill="#FF0E3D" d="M59.3208 130.269L60.1689 130.25C63.8726 134.14 64.9314 137.785 67.6157 142.382C69.5248 145.652 71.5163 148.841 73.3552 152.157L73.3154 152.587L72.6249 152.599C72.9018 153.159 73.2475 153.691 73.2011 154.299L72.9659 154.517C71.9933 154.027 60.6571 133.05 59.3208 130.269Z"/><path fill="#FF0E3D" d="M58.8683 59.0693L59.2439 57.9405L59.808 57.7812C61.115 58.7829 61.436 62.1227 62.7503 62.8222L63.0135 62.2457C65.3232 65.8603 64.8583 69.0785 68.283 72.2122C71.3246 74.9955 72.1385 77.8767 72.7115 81.8398C72.4033 81.4109 72.1552 80.9761 71.8933 80.5193C67.8621 73.4871 62.3138 66.4072 58.8683 59.0693Z"/><path fill="#272C34" d="M484.246 79.3943C490.433 78.7697 495.079 81.2601 499.014 85.9274C499.474 85.4203 499.945 84.9234 500.426 84.4369C508.471 76.3618 523.38 78.3044 525.965 89.1406C527.733 96.5523 526.896 109.803 526.865 117.616C523.076 117.442 519.25 117.494 515.455 117.508C514.99 109.802 515.7 101.379 515.118 93.8608C512.774 90.2093 507.123 87.2284 503.542 90.9806C500.087 94.5999 500.832 104.107 500.952 109.083L500.966 117.456C497.546 117.333 493.026 117.493 489.527 117.526C489.353 110.255 490.022 102.818 489.344 95.6114C489.02 92.162 486.112 89.3257 482.601 89.3493C475.814 89.3949 475.394 95.5054 475.48 100.793C475.572 106.372 475.474 112.033 475.418 117.594C471.511 117.398 467.528 117.462 463.612 117.479C464.018 105.833 464.055 91.3507 463.705 79.6531C466.973 79.7787 471.531 78.8413 473.787 80.1482C474.567 80.9454 474.464 82.04 474.522 83.1885C478.234 80.7414 479.849 79.8753 484.246 79.3943Z"/><path fill="#272C34" d="M435.013 79.3765C443.053 78.6811 441.716 81.123 447.01 82.1866C447.949 81.5985 447.088 81.4782 447.703 80.1625C449.548 79.2615 456.621 79.6258 459.019 79.6652C459.372 91.879 459.004 105.176 459.038 117.437C455.666 117.306 450.503 118.168 447.996 116.768C447.187 115.573 447.465 115.576 447.466 113.857C434.156 124.45 418.137 113.175 419.154 97.2994C419.806 87.1374 424.81 80.8038 435.013 79.3765ZM441.188 107.437C452.073 101.657 447.875 88.2917 437.153 89.4537C425.604 96.5049 432.92 109.856 441.188 107.437Z"/><path fill="#040506" fill-opacity="0.094117649" d="M436.687 92.4048C437.766 92.2676 438.787 92.0284 439.793 92.4122C439.155 93.0433 437.191 93.3731 436.181 93.6308C435.357 94.0262 436.015 94.3057 434.684 94.5014L434.763 94.0144C435.467 93.2005 435.689 92.8799 436.687 92.4048Z"/><path fill="#272C34" d="M276.247 79.6988C280.388 79.6928 282.571 80.0395 286.408 81.8444C287.406 82.3143 289.168 83.1583 290.238 83.273C290.936 82.6076 290.656 81.8845 291.114 80.582C292.061 80.1857 295.862 80.376 297.44 80.231C297.808 92.1649 297.507 105.606 297.501 117.644C295.501 117.431 292.988 117.495 290.942 117.49L290.733 113.018C289.576 113.979 288.543 114.774 287.331 115.664C281.63 118.46 273.302 118.866 267.936 115.228C259.998 109.865 256.637 96.6586 261.993 88.4916C265.402 83.2934 270.376 80.8469 276.247 79.6988ZM281.455 111.781C296.207 106.357 293.893 84.5813 275.267 85.762C271.583 87.3459 268.758 89.8049 267.232 93.5934C265.81 97.1026 265.86 101.037 267.372 104.509C269.703 109.924 275.663 113.228 281.455 111.781Z"/><path fill="#272C34" d="M369.594 112.685C363.269 118.355 353.245 119.985 346.327 115.136C333.218 105.946 336.279 83.142 353.005 79.9253C359.507 78.6747 363.93 81.1541 368.983 84.4952C369.274 83.0092 369.406 81.7908 369.561 80.2825C371.625 80.2641 373.762 80.3656 375.83 80.4338C376.106 84.2784 376.179 87.9398 376.252 91.7842C376.682 97.7643 376.468 97.9958 376.226 103.457C375.74 106.783 375.786 114.013 375.733 117.643C370.534 117.392 368.474 118.838 369.594 112.685ZM356.672 111.703C363.703 111.923 369.594 106.424 369.863 99.3896C370.133 92.3552 364.681 86.4208 357.654 86.1011C350.557 85.7781 344.555 91.3018 344.282 98.4071C344.01 105.512 349.571 111.48 356.672 111.703Z"/><path fill="#272C34" d="M563.78 79.008C574.489 78.1879 583.857 86.1617 584.767 96.8722C585.676 107.583 577.789 117.025 567.095 118.026C556.273 119.039 546.701 111.029 545.78 100.19C544.859 89.3503 552.943 79.838 563.78 79.008ZM566.628 107.765C569.421 106.257 572.113 104.229 572.82 101.018C574.461 93.5664 570.369 89.9998 563.821 89.1494C553.099 93.7579 557.102 108.973 566.628 107.765Z"/><path fill="#272C34" d="M227.673 70.2679C229.079 70.1913 230.486 70.1285 231.894 70.0795C238.161 69.8725 248.198 69.4305 253.052 74.0833C256.217 77.117 258.188 81.9039 258.299 86.2864C258.414 90.6129 256.804 94.8072 253.824 97.9437C250.708 101.204 246.958 102.64 242.503 102.743C239.525 102.908 235.922 102.804 232.895 102.789C233.166 107.207 232.939 112.997 232.878 117.484C230.94 117.404 228.632 117.483 226.661 117.503C226.53 113.215 226.026 72.5339 226.86 70.5612L227.673 70.2679ZM248.965 94.6996C252.064 89.7939 253.064 81.0649 247.493 77.415C243.346 74.698 237.328 76.2254 232.812 75.4674C233.106 82.7147 232.839 90.0187 233.083 97.2622C238.164 97.3812 244.91 98.0255 248.965 94.6996Z"/><path fill="#272C34" d="M608.007 79.393C608.663 79.364 609.319 79.3539 609.975 79.3628C621.937 79.5786 625.02 87.7252 624.912 98.2999C624.847 104.668 624.933 111.062 624.771 117.457C620.925 117.454 617.308 117.446 613.46 117.659C613.155 110.082 614.416 100.718 612.491 93.418C612.227 92.4199 611.143 91.0163 610.495 90.1895C607.257 88.6014 605.407 88.9951 602.109 90.0978C597.766 94.957 598.887 110.703 599.008 117.461C595.163 117.439 591.318 117.479 587.474 117.581C587.231 105.955 586.723 90.8535 587.554 79.6201C590.901 79.7115 594.827 78.783 597.404 80.1717C598.217 80.9159 598.22 81.9388 598.381 83.0497C602.103 80.4552 603.548 79.9235 608.007 79.393Z"/><path fill="#272C34" d="M382.144 86.1857L382.241 86.1814C384.711 86.046 386.798 82.8013 388.998 81.6289C395.825 77.9912 405.695 78.4065 411.605 83.6807C415.605 87.2501 415.399 89.3909 417.266 93.6498C413.012 93.5948 408.758 93.5012 404.505 93.3689C403.621 91.7758 402.026 89.2556 400.111 88.968C390.918 87.6157 388.289 105.869 397.537 107.587C398.409 107.749 400.148 108.076 400.78 107.447C406.177 102.081 409.863 103.213 417.185 103.546C413.616 119.827 392.349 122.582 383.492 110.21C383.328 109.981 381.863 108.356 381.72 108.272C382.454 104.518 384.97 103.334 384.684 100.7C386.599 96.9982 384.511 96.9961 383.959 94.0021C383.999 93.3471 382.184 90.2287 381.752 89.4256C382.894 87.8424 383.523 87.6068 382.144 86.1857Z"/><path fill="#FE002B" d="M48.6471 58.5815L48.9571 58.935C49.2941 61.8713 49.0753 66.7742 49.0561 69.9114L49.0502 87.8418L49.0534 113.495C49.0519 117.692 49.2746 123.621 48.8611 127.631C47.4183 124.324 44.019 118.694 42.0324 115.627C38.2804 109.137 32.807 101.552 30.4136 94.5953C29.9627 93.2499 30.3358 90.9147 30.9535 89.6516C36.0253 79.2813 42.6784 68.4379 48.6471 58.5815Z"/><path fill="#272C34" d="M317.054 79.7061C321.709 79.1029 327.681 80.7167 330.926 84.1876C332.43 85.8028 333.512 87.7652 334.074 89.9C335.568 95.4256 334.872 111.589 334.649 117.601L328.622 117.493C328.763 110.049 328.633 101.75 328.245 94.2927C327.947 88.5647 322.336 84.626 316.579 85.4772C308.198 87.4888 307.709 94.4535 307.861 101.732C307.971 106.988 307.909 112.297 307.815 117.553C306.007 117.429 303.527 117.468 301.663 117.449C301.729 107.009 302.149 90.4744 301.546 80.2923C303.237 80.3966 305.639 79.9145 306.841 80.6319C307.611 81.4043 307.543 82.569 307.635 83.7004C311.194 81.1345 312.646 80.3888 317.054 79.7061Z"/><path fill="#272C34" d="M531.485 79.2297C535.128 79.4535 539.183 79.6967 542.8 79.5674C543.251 90.9256 542.89 105.537 542.782 117.046L542.237 117.42C538.583 117.405 534.928 117.473 531.276 117.624C531.106 112.932 531.441 105.717 531.375 100.855C531.309 96.0841 530.679 83.2627 531.485 79.2297Z"/><path fill="#272C34" d="M440.691 132.66C443.509 132.028 446.449 132.972 448.374 135.127C450.298 137.282 450.907 140.311 449.965 143.044C449.023 145.776 446.677 147.785 443.834 148.293C439.568 149.056 435.476 146.267 434.621 142.015C433.766 137.764 436.462 133.608 440.691 132.66ZM443.483 145.64C445.348 145.225 446.837 143.822 447.361 141.983C447.885 140.144 447.36 138.166 445.994 136.829C444.628 135.492 442.64 135.012 440.815 135.578C438.148 136.405 436.608 139.19 437.324 141.89C438.04 144.591 440.758 146.245 443.483 145.64Z"/><path fill="#272C34" d="M535.281 63.5C539.146 63.2153 542.764 64.2102 543.828 68.4414C544.217 69.9503 543.988 71.552 543.193 72.8918C541.997 74.8794 540.577 75.2748 538.468 75.7891C537.291 75.8885 535.05 75.7223 533.944 75.2808C532.439 74.6804 531.232 73.5079 530.588 72.0195C528.745 67.7397 531.708 65.0605 535.281 63.5Z"/><path fill="#15171B" d="M355.256 132.82C358.289 132.824 365.318 132.855 365.358 137.664C365.38 140.242 363.726 141.283 361.723 142.499C361.866 144.291 364.702 145.268 364.204 148C361.816 149.174 359.922 143.712 358.154 142.52C353.747 143.113 356.524 145.975 354.718 148.088L354.002 148.022C352.609 146.818 352.702 134.063 353.652 132.927L355.256 132.82ZM355.497 140.581C356.732 140.555 358.358 140.464 359.534 140.681C359.997 140.576 361.327 140.192 361.57 139.886C365.728 134.662 357.224 135 355.405 134.843C355.479 136.576 355.573 138.876 355.497 140.581Z"/><path fill="#040506" fill-opacity="0.95294118" d="M357.038 137.012C358.316 137.056 359.119 136.97 359.914 137.796L359.833 138.824C358.405 138.687 358.075 138.898 357.099 138.126L357.038 137.012Z"/><defs><linearGradient id="gradient_0" gradientUnits="userSpaceOnUse" x1="351.34622" y1="141.68227" x2="357.22995" y2="138.68517"><stop offset="0" stop-color="#1B1723"/><stop offset="1" stop-color="#2A3638"/></linearGradient></defs><path fill="url(#gradient_0)" d="M358.154 142.52C353.747 143.113 356.524 145.975 354.718 148.088L354.002 148.022C352.609 146.818 352.702 134.063 353.652 132.927L355.256 132.82C354.983 134.058 355.462 134.116 355.405 134.843C355.479 136.576 355.573 138.876 355.497 140.581C356.732 140.555 358.358 140.464 359.534 140.681C358.55 140.823 356.547 141.037 355.917 141.701C356.433 142.324 357.332 142.369 358.154 142.52Z"/><path fill="#272C34" d="M481.442 132.452C487.292 133.735 489.092 144.156 489.945 149.072C487.182 147.276 486.69 145.434 483.662 145.154C482.118 144.999 480.29 145.183 478.721 145.29C478.634 145.477 478.545 145.663 478.455 145.849C477.867 147.054 477.556 147.811 476.232 148.267L475.826 147.75C475.324 143.674 479.006 135.581 481.442 132.452ZM482.668 142.647C482.896 142.554 483.727 142.279 483.786 142.106C484.214 140.873 483.676 138.244 482.538 137.552C481.861 138.692 480.538 140.556 480.598 141.769L480.998 142.391L482.668 142.647Z"/><path fill="#272C34" d="M548.041 132.447C548.214 132.494 548.944 132.708 549.078 132.786C551.768 134.35 556.74 145.727 555.748 148.11C554.013 148.024 553.547 145.126 548.939 145.136L545.296 144.957C544.556 146.23 543.853 148.072 542.232 148.161C540.285 145.529 545.883 134.71 548.041 132.447ZM549.888 142.747L550.726 142.499C551.352 141.092 549.761 137.476 548.652 136.605C548.165 138.028 546.855 140.802 546.993 141.901C547.767 142.964 548.642 142.763 549.888 142.747Z"/><path fill="#272C34" d="M396.881 132.424C401.194 132.814 405.813 146.175 405.106 148.098C402.653 148.499 402.981 146.116 400.292 145.325C398.461 145.197 396.21 145.248 394.345 145.241C393.734 146.413 393.07 147.791 391.754 148.237C389.68 146.394 395.208 134.541 396.881 132.424ZM398.584 142.62L399.465 142.626C400.347 141.185 398.809 138.087 397.796 136.905C397.132 138.346 395.776 140.615 396.053 141.962C396.805 142.662 397.364 142.49 398.584 142.62Z"/><path fill="#272C34" d="M372.071 147.543C371.057 144.388 371.327 140.816 371.279 137.522C371.254 135.826 370.942 133.581 372.717 132.905C375.607 133.532 380.157 140.678 382.193 143.316C382.211 141.48 382.109 134.042 383.221 132.845L383.75 133.231C385.434 136.721 385.063 141.895 385.149 145.754C385.18 147.153 385.109 148.135 383.627 148.312C380.468 147.117 375.825 139.366 374.083 136.458C374.054 138.949 374.131 143.459 373.665 145.734C373.613 144.051 373.534 142.369 373.429 140.688L373.227 142.638C372.695 142.146 372.656 141.515 372.43 140.735C371.938 141.495 372.056 146.302 372.071 147.543Z"/><path fill="#272C34" d="M298.169 144.406C297.819 142.673 297.554 133.884 298.617 132.76C302.455 132.801 306.4 141.395 308.984 143.413C308.956 140.874 308.789 135.135 310.139 133.063C311.049 134.2 311.196 138.149 311.228 139.698C311.659 142.781 311.597 145.913 311.045 148.976C309.233 147.951 309.177 147.821 307.704 146.634C306.1 145.342 302.522 139.578 300.861 139.85C300.355 142.479 300.644 145.914 300.097 147.869C299.729 144.961 300.47 144.625 299.466 140.788L298.888 140.794L299.135 140.442L299.189 140.52L298.857 140.721C298.238 141.739 298.256 143.181 298.169 144.406Z"/><path fill="#15171B" d="M308.984 143.413C308.956 140.874 308.789 135.135 310.139 133.063C311.049 134.2 311.196 138.149 311.228 139.698C311.086 141.654 311.16 145.624 309.935 146.9L309.346 146.576C309.057 145.351 309.043 144.659 308.984 143.413Z"/><path fill="#272C34" d="M335.297 132.781C338.232 133.085 341.035 132.715 344.197 133.16C345.466 133.295 345.68 133.124 346.634 133.812L346.775 134.542C344.48 134.856 339.938 135.05 337.536 135.102C337.813 136.538 337.804 138.153 338.566 139.057C339.626 139.337 340.351 139.389 341.428 139.492C342.601 139.527 343.739 139.454 344.766 140L344.862 140.469C343.979 141.175 342.551 141.126 341.37 141.212C340.326 141.293 339.339 141.322 338.337 141.633C337.458 142.77 337.836 144.108 337.91 145.763C339.1 145.823 342.977 145.956 343.94 146.149C344.922 146.206 345.757 146.155 346.543 146.749L346.403 147.127L345.443 147.52C343.377 147.959 337.552 148.063 335.177 148.156L335.297 132.781Z"/><path fill="#040506" d="M341.428 139.492C342.601 139.527 343.739 139.454 344.766 140L344.862 140.469C343.979 141.175 342.551 141.126 341.37 141.212C340.35 141.1 339.023 141.045 338.54 140.062C339.279 139.424 340.415 139.527 341.428 139.492Z"/><path fill="#15171B" d="M344.197 133.16C345.466 133.295 345.68 133.124 346.634 133.812L346.775 134.542C344.963 134.409 340.059 134.638 338.457 133.816C340.293 133.38 342.306 133.296 344.197 133.16Z"/><path fill="#040506" d="M343.94 146.149C344.922 146.206 345.757 146.155 346.543 146.749L346.403 147.127L345.443 147.52C343.815 147.383 343.116 147.768 341.288 147.19L341.616 147.208L341.677 146.641L341.111 146.894L341.814 147.15L341.912 146.501L341.655 146.557C342.144 146.284 343.327 146.219 343.94 146.149Z"/><path fill="#272C34" d="M456.15 132.218C462.801 135.675 462.72 138.66 466.87 143.786C466.912 145.205 466.916 146.268 466.833 147.684C463.699 144.6 461.975 141.42 459.328 138.772C458.835 139.303 458.838 141.134 458.779 141.975C458.42 144.301 459.026 145.543 457.72 147.911L457.256 148.034C455.678 145.481 455.98 139.347 456.064 136.403C456.079 135.241 456.045 133.316 456.15 132.218Z"/><path fill="#15171B" d="M456.064 136.403L456.586 136.37C458.207 138.374 458.237 139.409 458.779 141.975C458.42 144.301 459.026 145.543 457.72 147.911L457.256 148.034C455.678 145.481 455.98 139.347 456.064 136.403Z"/><defs><linearGradient id="gradient_1" gradientUnits="userSpaceOnUse" x1="524.66626" y1="147.19467" x2="524.37158" y2="137.83647"><stop offset="0" stop-color="#232734"/><stop offset="1" stop-color="#3F444D"/></linearGradient></defs><path fill="url(#gradient_1)" d="M518.373 139.403C521.374 138.633 519.059 137.82 520.484 135.738L521.355 135.627C521.311 136.125 521.092 136.882 521.506 137.219C525.55 140.511 533.236 139.861 528.322 147.392C527.297 148.962 522.371 148.241 520.896 147.923L520.79 147.866C519.716 147.287 518.565 146.622 518.196 145.383L518.588 145.012L519.655 145.074C521.281 145.436 525.699 146.364 526.959 145.055C526.363 142.696 521.121 141.138 518.373 139.403Z"/><path fill="#272C34" d="M520.896 147.923L520.79 147.866C519.716 147.287 518.565 146.622 518.196 145.383L518.588 145.012L519.655 145.074C520.722 146.246 520.873 146.325 520.896 147.923Z"/><path fill="#FF0E3D" d="M382.144 86.1857C383.523 87.6068 382.894 87.8424 381.752 89.4256C382.184 90.2287 383.999 93.3471 383.959 94.0021C382.986 92.9889 382.192 91.8431 380.967 91.4003L380.81 91.7276C382.249 94.604 383.08 95.1582 383.949 98.3035C382.242 101.387 380.877 103.799 378.787 106.634C378.989 101.669 378.814 96.6512 378.991 91.6692L379.272 91.4422L379.199 90.9945C379.789 88.6969 380.36 87.7695 382.144 86.1857Z"/><path fill="#272C34" d="M426.03 131.81C427.1 131.845 427.479 131.82 428.488 132.265C429.453 133.534 429.177 145.899 429.185 148.375C428.204 148.311 427.285 148.359 426.514 147.755C425.545 145.676 425.959 134.683 426.03 131.81Z"/><path fill="#272C34" d="M288.138 131.872C289.018 131.875 289.857 131.773 290.556 132.293C291.421 134.368 291.026 145.356 291.008 148.277C290.771 148.274 290.534 148.267 290.297 148.256C288.514 148.169 288.221 147.389 288.164 145.712C288.009 141.231 287.736 136.333 288.138 131.872Z"/><path fill="#040506" d="M496.263 132.611C496.92 132.697 496.997 132.724 497.555 133.082C498.562 135.036 498.166 143.233 498.202 145.918C500.001 145.79 505.77 145.554 506.492 147.285L506.051 147.765C502.772 147.949 499.37 147.967 496.078 148.027C495.851 143.78 496.016 136.876 496.263 132.611Z"/><path fill="#15171B" d="M466.87 143.786C467.031 141.323 466.798 135.083 467.732 133.334L468.172 133.386C469.676 135.579 470.034 144.043 469.558 146.522C469.444 147.093 469.255 147.647 468.996 148.168L468.432 148.455C467.751 148.198 467.432 148.098 466.833 147.684C466.916 146.268 466.912 145.205 466.87 143.786Z"/><path fill="#15171B" fill-opacity="0.98039216" d="M411.71 134.967C412.757 133.689 417.847 134.402 419.666 134.455C417.809 135.07 416.944 135.096 414.975 134.945C415.009 137.534 415.184 146.228 414.171 148.159C411.306 148.504 413.134 137.299 412.344 135.2L411.71 134.967Z"/><path fill="#272C34" d="M322.036 135.179C322.842 135.081 323.912 134.905 324.698 134.981C324.834 137.671 325.111 145.603 323.863 147.729L323.371 147.811C321.661 145.738 322.032 138.104 322.036 135.179Z"/><path fill="#FDFBFC" fill-opacity="0.45882353" d="M378.133 91.3555L379.199 90.9945L379.272 91.4422L378.991 91.6692C378.814 96.6512 378.989 101.669 378.787 106.634C380.877 103.799 382.242 101.387 383.949 98.3035C384.124 99.5993 383.071 101.449 383.502 101.83C383.981 101.424 384.254 101.158 384.684 100.7C384.97 103.334 382.454 104.518 381.72 108.272C380.109 106.715 380.786 106.931 378.493 105.53L378.321 104.688C377.384 99.3294 378.353 96.1166 378.133 91.3555Z"/><path fill="#272C34" d="M518.373 139.403C515.856 130.362 528.471 131.73 528.832 135.227C527.073 136.697 524.822 134.24 521.355 135.627L520.484 135.738C519.059 137.82 521.374 138.633 518.373 139.403Z"/><path fill="#15171B" d="M322.036 135.179C320.396 135.194 319.432 135.287 317.903 134.712L317.618 134.275C319.143 131.786 327.127 132.172 329.209 134.036L329.16 134.476C327.872 135.217 326.166 135.081 324.698 134.981C323.912 134.905 322.842 135.081 322.036 135.179Z"/><path fill="#040506" fill-opacity="0.94509804" d="M461.319 92.0943C461.338 92.116 461.359 92.1367 461.377 92.1592C462.338 93.3506 462.061 115.292 461.848 118.186L461.309 118.161C460.672 117.275 460.993 94.2044 461.319 92.0943Z"/><path fill="#040506" d="M409.406 133.219C412.48 132.642 416.318 132.244 419.24 133.566C419.67 134.084 419.582 133.852 419.666 134.455C417.847 134.402 412.757 133.689 411.71 134.967L411.27 135.074C410.1 135.075 408.946 135.088 408.022 134.346C408.362 133.509 408.415 133.698 409.406 133.219Z"/><path fill="#15171B" d="M411.27 135.074C410.1 135.075 408.946 135.088 408.022 134.346C408.362 133.509 408.415 133.698 409.406 133.219C410.07 134.09 410.316 134.471 411.27 135.074Z"/><path fill="#FDFBFC" fill-opacity="0.054901961" d="M383.949 98.3035C383.08 95.1582 382.249 94.604 380.81 91.7276L380.967 91.4003C382.192 91.8431 382.986 92.9889 383.959 94.0021C384.511 96.9961 386.599 96.9982 384.684 100.7C384.254 101.158 383.981 101.424 383.502 101.83C383.071 101.449 384.124 99.5993 383.949 98.3035Z"/><path fill="#FDFBFC" fill-opacity="0.20784314" d="M376.252 91.7842C376.454 92.3992 376.728 93.6242 377.146 93.9339C377.45 93.0653 377.78 92.2055 378.133 91.3555C378.353 96.1166 377.384 99.3294 378.321 104.688C377.567 103.439 377.603 102.112 377.116 101.626L376.226 103.457C376.468 97.9958 376.682 97.7643 376.252 91.7842Z"/><path fill="#040506" fill-opacity="0.93725491" d="M299.087 85.3991C299.161 83.6328 299.132 81.6307 299.764 80.0005C300.472 82.895 299.718 93.3226 299.863 96.79L299.058 97.3947C299.18 93.4871 298.93 89.4849 299.087 85.3991Z"/><path fill="#15171B" fill-opacity="0.98823529" d="M298.169 144.406C298.256 143.181 298.238 141.739 298.857 140.721L299.189 140.52L299.135 140.442L298.888 140.794L299.466 140.788C300.47 144.625 299.729 144.961 300.097 147.869C299.182 148.097 299.493 148.157 298.711 147.802C298.096 146.838 298.2 145.581 298.169 144.406Z"/><path fill="#040506" fill-opacity="0.98823529" d="M372.071 147.543C372.056 146.302 371.938 141.495 372.43 140.735C372.656 141.515 372.695 142.146 373.227 142.638L373.429 140.688C373.534 142.369 373.613 144.051 373.665 145.734C373.544 146.723 373.555 147.246 372.901 148.018C372.205 147.869 372.397 148.014 372.071 147.543Z"/><path fill="#040506" fill-opacity="0.96078432" d="M461.152 78.8959C462.612 79.8547 461.953 86.8699 461.87 88.7947C461.425 88.7523 461.558 88.7622 461.151 88.4647C460.783 85.3645 460.967 82.01 461.152 78.8959Z"/><path fill="#040506" fill-opacity="0.90980393" d="M339.907 143.087C341.354 143.035 343.004 142.786 344.156 143.55L344.156 144.444C342.524 144.614 341.378 144.972 340.064 144.141L339.907 143.087Z"/><path fill="#15171B" fill-opacity="0.92941177" d="M535.13 77.2052C536.935 77.0563 540.507 76.4015 541.634 77.88C539.802 78.1486 536.497 78.522 535.13 77.2052Z"/><path fill="#040506" fill-opacity="0.96078432" d="M339.763 137.173C341.676 136.999 344.29 136.524 345.803 137.582C344.414 138.295 340.957 138.428 339.763 137.173Z"/><path fill="#15171B" fill-opacity="0.20392157" d="M299.122 101.116L299.77 101.153C299.888 102.402 300.043 107.961 299.338 108.816C299.038 106.402 299.116 103.584 299.122 101.116Z"/><path fill="#15171B" fill-opacity="0.50588238" d="M299.863 96.79L299.77 101.153L299.122 101.116L299.058 97.3947L299.863 96.79Z"/><path fill="#040506" fill-opacity="0.80784315" d="M299.087 85.3991C298.899 84.0321 298.792 80.5853 299.577 79.4977L299.764 80.0005C299.132 81.6307 299.161 83.6328 299.087 85.3991Z"/><path fill="#15171B" fill-opacity="0.25490198" d="M521.31 143.164C522.79 142.937 523.086 142.731 523.907 143.899C523.752 143.896 523.597 143.891 523.442 143.884C522.225 143.826 521.962 143.884 521.31 143.164Z"/><path fill="#040506" fill-opacity="0.35294119" d="M299.241 114.694C299.622 114.569 299.458 114.571 299.882 114.763L299.782 116.473C298.981 116.027 299.173 115.414 299.241 114.694Z"/><path fill="#040506" fill-opacity="0.24705882" d="M528.225 87.4303C529.035 88.031 528.88 88.392 528.881 89.2974L528.586 89.3502C528.085 88.8069 528.248 88.3218 528.225 87.4303Z"/></svg>