<?xml version="1.0" encoding="utf-8" ?><svg xmlns="http://www.w3.org/2000/svg" xmlns:xlink="http://www.w3.org/1999/xlink" width="874" height="681" viewBox="0 0 874 681"><clipPath id="cl_4"><rect x="-8.392334e-05" y="3.0517578e-05" width="874" height="681"/></clipPath><g clip-path="url(#cl_4)"><path fill="#EA3230" transform="matrix(0.986456 0 0 0.985528 -89.7676 -51.2474)" d="M402.014 138.077C418.862 138.566 437.576 138.059 454.611 138.072L566.238 138.077L608.812 138.036C632.734 138.012 656.728 137.597 679.873 144.69C721.865 157.558 742.921 198.7 762.351 234.618L789.828 285.608C815.584 332.279 840.926 379.177 865.852 426.296C861.159 436.052 854.161 448.013 848.927 457.676L819.432 512.585L785.596 575.62C773.289 598.69 761.412 624.264 743.973 643.793C734.493 654.409 718.613 656.746 705.175 656.94C689.64 657.164 673.919 657.021 658.351 657.023L555.891 657.189C545.356 675.342 535.205 695.16 525.269 713.762C511.227 714.256 496.452 713.477 482.349 713.763C455.669 714.304 429.193 714.657 402.504 713.935C406.097 704.142 415.468 688.257 420.725 678.598L521.121 492.353C532.937 470.512 544.475 447.902 556.676 426.39C576.27 425.959 597.094 426.512 616.808 426.52C636.94 426.529 658.86 425.926 678.801 426.819C665.091 454.228 648.721 481.986 634.615 509.318C628.952 520.289 622.681 530.851 617.35 542.072C631.773 542.155 658.106 543.64 670.963 539.557C689.474 533.679 705.096 493.173 714.187 477.329C723.875 460.444 733.587 442.538 741.793 425.554C736.659 417.25 728.855 401.542 723.985 392.449L689.243 327.313C679.053 308.003 668.483 285.224 653.59 269.287C639.09 253.771 619.013 252.335 599.094 251.961C584.614 251.689 569.977 251.646 555.351 251.672L463.358 251.917C459.881 246.851 455.559 238.224 452.507 232.538L435.396 200.765L414.319 162.026C410.353 154.676 405.234 145.609 402.014 138.077Z"/><path fill="#EA3230" transform="matrix(0.986456 0 0 0.985528 -89.7676 -51.2474)" d="M354.392 167.585C356.41 169.139 369.533 194.421 371.692 198.451L403.696 258.263L453.423 350.989C467.095 375.98 480.516 401.107 493.685 426.367L359.925 675.533C358.336 678.63 356.781 681.744 355.26 684.874C351.172 679.123 346.189 669.086 342.782 662.643L323.122 625.415C316.619 613.082 301.527 586.984 299.785 574.767C299.125 569.798 299.588 564.744 301.142 559.979C305.265 547.164 317.195 526.082 323.81 513.852L354.689 456.426C372.744 422.952 371.587 426.101 353.738 392.88C345.713 377.772 337.601 362.711 329.404 347.696C319.295 329.129 305.603 306.379 299.613 286.571C295.04 271.448 314.163 242.411 321.516 228.439L341.49 190.774C345.2 183.806 350.118 173.94 354.392 167.585Z"/><path fill="#EA3230" transform="matrix(0.986456 0 0 0.985528 -89.7676 -51.2474)" d="M258.974 287.578C260.158 291.657 259.909 306.381 259.923 311.467L259.609 365.906C259.441 431.431 258.995 498.784 259.802 564.224C253.296 555.158 240.839 530.552 235.285 520.084C226.847 503.431 216.661 486.384 207.936 469.746C201.859 458.229 194.561 447.125 190.729 434.593C186.31 420.111 195.541 403.861 202.587 391.373C221.907 357.135 239.693 321.824 258.974 287.578Z"/><path fill="#26272D" transform="matrix(0.986456 0 0 0.985528 -89.7676 -51.2474)" d="M722.117 741.003C725.624 740.07 729.365 740.791 732.274 742.96C735.184 745.129 736.942 748.508 737.048 752.135C737.21 757.691 733.496 762.617 728.109 763.992C721.774 765.607 715.324 761.803 713.675 755.478C712.027 749.152 715.799 742.684 722.117 741.003Z"/></g></svg>