<?xml version="1.0" encoding="utf-8" ?><svg xmlns="http://www.w3.org/2000/svg" xmlns:xlink="http://www.w3.org/1999/xlink" width="649" height="183" viewBox="0 0 649 183"><path fill="#FE002B" d="M87.1503 21.3538C101.618 21.5514 116.244 21.0398 130.664 21.2974C144.545 21.5454 162.693 18.716 172.919 30.0836C179.677 37.5964 184.957 47.985 190.056 56.7523L211.012 92.6774C207.995 98.6658 202.144 108.09 198.589 114.222L188.313 131.937C177.168 151.147 178.5 149.996 156.631 150.002L128.106 150.021C126.294 153.729 122.097 160.417 119.88 164.222C109.13 164.193 97.7272 163.971 87.0297 164.204C88.0239 162.152 90.0917 158.834 91.2943 156.763L128.369 92.8306C138.783 92.574 150.574 92.9025 161.097 92.9498C155.868 100.986 149.438 112.922 144.548 121.542C161.682 120.864 159.765 124.291 169.099 108.043L177.918 92.6019C172.991 84.9802 168.396 75.7085 163.609 67.8656C160.898 63.4002 158.555 58.1288 154.881 54.3744C148.702 48.0602 136.588 49.462 128.308 49.471L103.281 49.4711C99.8914 43.2273 95.7817 36.8852 92.2879 30.6467C90.6407 27.7055 88.5013 24.4029 87.1503 21.3538Z"/><path fill="#FE002B" d="M74.1503 28.7127C75.0647 29.0667 108.475 87.5026 111.505 92.7211L75.9211 154.323L74.4429 156.935C71.9264 152.965 58.7166 131.425 59.6892 127.75C62.6005 116.75 74.3662 103.838 78.1346 92.9752C76.8822 87.8244 67.1084 72.7407 64.0594 67.216C57.3093 54.985 58.56 55.7521 65.1657 44.3108L74.1503 28.7127Z"/><path fill="#FFFFFF" d="M499.015 86.2125C499.614 85.3918 500.28 84.6223 501.006 83.9119C509.129 75.8095 524.184 79.1221 526.145 90.0888C527.492 97.6246 526.78 109.41 526.734 117.225L515.467 117.248C515.407 113.01 515.843 97.3931 515.125 94.312C514.865 93.2293 514.31 92.2401 513.521 91.4548C510.96 88.8732 505.483 88.3468 503.121 91.0775C500.007 94.6775 500.963 104.11 501.006 108.627L500.998 117.242L489.64 117.208C489.576 109.934 490.097 102.364 489.433 95.195C488.759 91.5416 486.124 89.1981 482.551 89.2496C475.208 89.3555 475.094 95.7776 475.205 101.373C475.309 106.607 475.258 111.98 475.263 117.215C471.544 117.312 467.538 117.225 463.798 117.213L463.829 79.7581L473.9 79.771L474.569 83.3262C478.19 80.6066 479.708 79.8914 484.24 79.4106C490.975 79.0506 494.945 80.9622 499.015 86.2125Z"/><path fill="#FFFFFF" d="M434.796 79.3832C440.796 78.9477 442.357 79.7479 447.237 82.7672C448.004 82.3291 447.041 80.9972 447.861 79.9437C449.627 79.5489 456.591 79.7572 458.93 79.766L458.898 117.25C456.542 117.262 449.497 117.432 447.703 116.978C447.356 116.248 447.522 114.582 447.556 113.681C444.866 115.937 443.22 116.878 439.59 117.447C421.024 120.36 414.294 98.3844 423.444 85.4386C426.216 81.5169 430.069 80.009 434.796 79.3832Z"/><path fill="white" d="M438.269 89.2131C450.006 89.3689 450.888 105.34 440.058 107.788C429.592 107.907 427.081 92.3198 438.269 89.2131Z"/><path fill="#FFFFFF" d="M275.027 80.0078C275.419 79.9429 275.814 79.8997 276.211 79.8783C282.22 79.5462 286.627 81.7167 290.973 85.5825L291.046 80.5028C293.061 80.4686 295.182 80.5048 297.206 80.5072L297.189 117.217L291.121 117.256L290.94 112.211L288.836 114.213C283.522 118.347 273.091 119.007 267.838 114.938C254.763 104.81 257.739 83.2725 275.027 80.0078Z"/><path fill="white" d="M275.79 85.3942C293.589 83.1709 296.731 107.807 280.942 112.243C264.154 114.659 260.2 89.9716 275.79 85.3942Z"/><path fill="#FFFFFF" d="M353.461 80.0013C353.636 79.9731 353.811 79.9505 353.986 79.9334C360.424 79.3275 364.806 81.5978 369.558 85.5166L369.565 80.4812L375.72 80.508L375.672 117.211C373.709 117.263 371.515 117.211 369.533 117.205L369.603 112.204L367.569 114.112C365.506 115.593 363.164 116.638 360.685 117.184C336.208 122.744 328.907 85.1928 353.461 80.0013Z"/><path fill="white" d="M354.385 85.3934C372.064 83.0364 375.38 108.019 359.324 112.275C342.495 114.38 338.85 89.8508 354.385 85.3934Z"/><path fill="#FFFFFF" d="M562.492 79.1555C573.155 77.6274 583.039 85.0321 584.58 95.7022C586.121 106.372 578.735 116.275 568.076 117.83C557.397 119.389 547.481 111.98 545.937 101.291C544.394 90.6013 551.809 80.6864 562.492 79.1555Z"/><path fill="white" d="M563.753 89.2061C574.804 88.5805 576.891 104.096 566.543 107.775C558.624 108.365 555.742 100.647 558.233 94.0212C559.256 91.3007 561.156 90.2083 563.753 89.2061Z"/><path fill="#FFFFFF" d="M226.782 70.4462C233.849 70.4018 248.009 69.1863 252.801 74.0317C262.752 84.0947 258.39 101.299 243.042 102.508L232.8 102.606L232.761 117.217C230.812 117.257 228.724 117.218 226.762 117.216L226.782 70.4462Z"/><path fill="white" d="M232.805 75.4934C237.187 75.4423 244.783 74.6601 248.237 77.4416C253.162 81.408 252.599 90.2658 249.104 94.9992C244.811 98.5342 238.346 97.6453 232.841 97.5631C232.675 90.3457 232.799 82.7393 232.805 75.4934Z"/><path fill="#FFFFFF" d="M608.525 79.4047C608.796 79.3987 609.067 79.3962 609.339 79.3973C625.556 79.4631 624.893 92.1522 624.857 104.021L624.802 117.226L613.486 117.239C613.507 111.703 614.458 97.4024 612.587 93.0458C611.887 91.4175 610.716 90.0022 609.032 89.3483C606.736 88.4565 604.252 89.1308 602.105 90.0816C597.329 93.6373 598.996 111.177 598.999 117.236L587.58 117.215L587.6 79.789L597.756 79.8153L598.292 83.3107C602.158 80.4496 603.799 79.8327 608.525 79.4047Z"/><path fill="#FFFFFF" d="M396.524 79.3743C407.372 78.8573 413.829 82.6139 416.935 93.2869L404.77 93.2869C399.114 82.2002 388.483 93.748 392.346 103.018C394.967 109.309 401.667 109.9 404.745 103.679L416.124 103.701L416.671 103.922C417.258 106.962 411.505 113.971 408.686 115.348C397.979 120.575 387.46 117.428 381.717 107.325C383.29 104.064 385.054 102.177 386.211 98.4645C385.311 95.482 383.29 92.3276 381.739 89.5404C385.588 82.9891 389.092 80.5734 396.524 79.3743Z"/><path fill="#FE002B" d="M48.6501 58.5661C49.0714 59.8029 48.8768 64.5337 48.8914 66.1686C49.0731 86.5518 48.5776 107.026 48.9589 127.4C47.0229 123.676 44.3021 119.271 42.1394 115.592C38.6618 109.538 32.9038 100.981 30.3884 94.6059C28.9405 90.9363 35.097 81.7573 37.307 77.9812L48.6501 58.5661Z"/><path fill="#FFFFFF" d="M315.83 80.0263C323.592 78.7768 332.951 82.35 334.121 90.6589C335.261 98.7603 334.695 108.929 334.65 117.204C332.782 117.267 330.573 117.215 328.678 117.213C328.641 113.681 328.829 110.071 328.72 106.545C328.415 96.6754 331.248 86.0697 317.917 85.0134C307.663 86.7919 307.687 92.9332 307.726 102.12C307.748 107.101 307.791 112.231 307.747 117.215C305.81 117.26 303.702 117.219 301.752 117.216L301.772 80.4956L306.935 80.4716C307.184 81.6277 307.398 82.8794 307.622 84.0492C310.513 81.6044 312.292 80.8762 315.83 80.0263Z"/><path fill="#FFFFFF" d="M531.427 79.8014L542.829 79.7786L542.808 117.224L531.395 117.242L531.427 79.8014Z"/><path fill="#FFFFFF" d="M442.4 132.751C446.574 132.737 449.999 136.054 450.123 140.229C450.246 144.404 447.024 147.918 442.857 148.152C440.062 148.309 437.402 146.935 435.91 144.564C434.418 142.194 434.33 139.199 435.678 136.744C437.027 134.289 439.601 132.76 442.4 132.751Z"/><path fill="white" d="M440.979 135.051C443.907 134.275 446.92 135.978 447.767 138.888C448.614 141.798 446.988 144.854 444.102 145.774C442.17 146.389 440.057 145.908 438.582 144.518C437.106 143.127 436.5 141.045 436.998 139.078C437.496 137.112 439.02 135.57 440.979 135.051Z"/><path fill="#FFFFFF" d="M535.581 63.5065C539.135 63.2652 542.527 64.3546 543.658 68.1045C544.11 69.574 543.948 71.1639 543.211 72.5128C542.118 74.4959 540.577 75.1652 538.538 75.768C535.287 76.033 531.976 75.0963 530.709 71.7592C530.143 70.3041 530.192 68.6811 530.845 67.2631C531.852 65.0343 533.445 64.3194 535.581 63.5065Z"/><path fill="#FFFFFF" d="M353.232 132.982C355.306 132.959 359.696 132.737 361.427 133.412C366.939 135.564 365.723 140.379 361.215 142.597C362.131 143.96 364.74 146.417 364.154 147.904L362.692 148.092C360.643 145.93 359.412 141.044 355.512 143.122C354.796 144.72 356.237 146.402 355.029 147.829C354.014 147.971 354.343 148.046 353.456 147.696C352.959 146.806 353.222 135.019 353.232 132.982Z"/><path fill="white" d="M355.348 134.95C358.583 134.814 365.424 134.813 361.786 140.074C360.069 140.838 357.196 140.738 355.293 140.73L355.348 134.95Z"/><path fill="#FFFFFF" d="M547.686 132.846C548.554 132.832 548.874 132.783 549.657 133.132C551.219 134.728 555.629 145.44 556.139 147.617C555.675 148.145 555.896 148.003 555.078 148.07C552.403 146.673 554.444 145.057 550.208 144.857L544.914 144.914C544.575 145.728 544.216 146.532 543.835 147.327C542.741 148.066 543.215 147.879 541.755 147.917L541.505 147.474C542.474 144.034 546.068 136.393 547.686 132.846Z"/><path fill="white" d="M548.579 136.24C549.659 137.069 551.8 141.262 551.086 142.853L549.67 142.984C548.111 143.065 547.083 143.495 546.337 142.061C546.322 140.841 547.968 137.68 548.579 136.24Z"/><path fill="#FFFFFF" d="M396.701 132.931C397.518 132.885 398.043 132.791 398.779 133.165C400.134 134.5 405.122 146.412 405.262 147.601C404.755 148.094 404.915 147.948 404.022 147.963C401.561 146.729 403.419 145.046 399.475 144.853L394.051 144.9C393.31 146.635 393.314 147.673 391.452 148.038L391.007 147.605C390.892 145.146 395.426 135.807 396.701 132.931Z"/><path fill="white" d="M397.748 136.247C398.624 137.031 400.797 141.712 400.393 142.896L398.081 142.985C397.15 143.026 396.734 143.069 395.8 142.855L395.437 142.236C395.371 140.73 397.014 137.833 397.748 136.247Z"/><path fill="#FFFFFF" d="M481.253 132.865C482.009 132.837 482.333 132.893 483.084 133.014C484.834 134.524 488.796 144.885 489.68 147.481L489.404 147.94L488.656 147.889C486.203 146.304 487.302 145.121 484.294 144.851C482.354 144.831 480.325 144.896 478.378 144.928C478.051 145.859 477.746 146.581 477.352 147.476C476.721 147.911 476.477 148.16 475.729 148.087L475.481 147.71C475.424 145.096 479.915 135.729 481.253 132.865Z"/><path fill="white" d="M482.327 136.224C483.302 137.007 485.504 141.578 484.426 142.928L482.803 142.993C481.562 143.052 480.656 143.339 479.889 142.313C479.752 140.651 481.486 137.881 482.327 136.224Z"/><path fill="#FFFFFF" d="M371.744 132.774C371.912 132.781 372.08 132.792 372.247 132.806C372.657 132.84 373.519 132.926 373.803 133.209C377.08 136.487 379.518 140.567 382.547 144.119C382.497 141.349 382.43 136.367 382.677 133.462C382.708 133.089 383.164 132.999 383.548 132.846L384.15 133.275C385.21 135.607 384.749 144.877 384.706 148.034C382.882 148.045 382.518 147.81 381.317 146.36C378.731 143.24 376.381 139.89 373.99 136.615C373.846 139.094 374.675 146.913 372.709 148.016L372.055 147.787C371.355 146.697 371.715 134.969 371.744 132.774Z"/><path fill="#FFFFFF" d="M456.289 132.723C456.578 132.75 456.865 132.787 457.151 132.833C459.562 133.233 465.263 142.033 466.937 144.354C467.158 141.08 466.748 136.189 467.39 133.297L468.042 132.89L468.554 133.154C469.649 135.093 469.395 145.777 469.102 148.224C467.292 148.004 466.841 147.689 465.68 146.225C463.185 143.078 460.912 139.841 458.361 136.726C458.407 138.271 458.496 147.061 458.119 147.824L457.433 147.999L456.906 147.665C455.671 145.549 456.23 135.829 456.289 132.723Z"/><path fill="#FFFFFF" d="M298.209 132.724C298.487 132.746 298.763 132.778 299.038 132.821C301.504 133.22 307.231 142.084 308.929 144.437C308.993 141.608 308.72 135.156 309.827 132.949L310.245 132.889C311.454 134.886 311.428 145.843 310.96 148.243C310.435 148.165 309.356 147.983 309.017 147.636C305.974 144.517 303.124 140.147 300.312 136.73C300.302 139.597 300.427 143.849 300.285 146.79C300.254 147.444 299.5 147.819 298.977 148.064L298.451 147.715C297.867 145.172 298.17 135.784 298.209 132.724Z"/><defs><linearGradient id="gradient_0" gradientUnits="userSpaceOnUse" x1="345.12006" y1="142.89522" x2="334.62805" y2="140.30675"><stop offset="0" stop-color="#FFFFFF"/><stop offset="1" stop-color="#FFFFFF"/></linearGradient></defs><path fill="url(#gradient_0)" d="M335.503 132.974C337.596 132.974 339.254 133.016 341.346 133.168C342.901 133.085 344.681 132.882 346.151 133.333C346.695 133.961 346.604 133.696 346.736 134.482C345.231 134.953 339.403 134.933 337.664 134.96L337.618 139.224C339.768 139.23 343.52 139.055 345.358 140.113L345.229 140.533C342.878 141.474 340.214 141.347 337.677 141.406L337.635 145.981C339.217 145.992 345.575 145.79 346.531 146.63L346.485 147.144C344.874 148.204 337.694 147.904 335.392 147.907C335.475 142.93 335.512 137.952 335.503 132.974Z"/><path fill="#FFFFFF" d="M341.346 133.168C342.901 133.085 344.681 132.882 346.151 133.333C346.695 133.961 346.604 133.696 346.736 134.482C345.183 134.473 338.463 134.548 337.475 133.801C338.518 133.28 340.139 133.26 341.346 133.168Z"/><path fill="#FFFFFF" d="M522.805 132.667C524.949 132.57 527.236 133.383 528.85 134.793L528.875 135.461C527.059 136.731 525.661 134.682 523.806 134.516C522.129 134.366 520.885 135.283 520.632 136.973C522.254 140.462 532.603 139.205 528.73 146.108C527.919 147.553 525.874 147.962 524.388 148.261C522.438 148.088 519.054 147.582 518.076 145.684C519.232 142.966 525.936 149.321 527.213 144.066C525.988 140.903 515.981 141.031 518.747 135.254C519.5 133.682 521.261 133.1 522.805 132.667Z"/><path fill="#FFFFFF" d="M426.038 132.015C427.045 131.974 427.448 131.972 428.443 132.118C428.569 132.249 428.724 132.408 428.906 132.595C429.149 136.793 428.989 144.044 428.955 147.989C427.973 148.029 427.45 147.999 426.481 147.916C425.819 147.215 426.04 134.008 426.038 132.015Z"/><path fill="#FFFFFF" d="M288.083 131.998C288.279 131.994 288.475 131.992 288.671 131.992C289.581 131.992 290.25 131.917 290.806 132.474C291.211 135.353 290.939 144.604 290.897 147.992C289.909 148.044 289.548 148.049 288.572 147.903C287.614 146.747 288.061 134.413 288.083 131.998Z"/><path fill="#FFFFFF" d="M496.162 132.825C496.924 132.878 497.397 132.828 497.943 133.342C498.26 135.263 498.058 143.513 498.043 146.056C500.434 146.038 503.3 145.837 505.566 146.268C506.318 146.848 506.103 146.577 506.288 147.712C503.142 147.879 499.229 147.815 496.023 147.851C496.126 142.872 496.122 137.812 496.162 132.825Z"/><path fill="#FE002B" d="M379.083 91.5025C380.071 91.8865 382.773 97.1295 383.491 98.4161C382.921 99.7236 381.779 101.605 381.047 102.893C380.564 103.829 379.684 105.144 379.099 106.071L379.083 91.5025Z"/><path fill="#FFFFFF" d="M322.304 134.919L324.577 134.872C324.491 137.164 324.818 146.515 324.14 147.816L323.375 147.938C321.477 146.238 322.418 137.875 322.304 134.919Z"/><path fill="#FFFFFF" d="M412.762 134.862L414.929 134.844C414.677 137.335 415.326 146.807 414.324 148.036C413.592 148.102 413.807 148.077 413.069 147.504C412.364 146.385 412.75 136.918 412.762 134.862Z"/><path fill="#FFFFFF" d="M412.762 134.862C411.234 134.895 409.472 135.078 408.129 134.398L407.945 133.966C409.744 132.521 417.652 132.471 419.478 133.872L419.434 134.339C418.136 135.114 416.469 134.887 414.929 134.844L412.762 134.862Z"/><path fill="#FFFFFF" d="M322.304 134.919C320.847 134.912 318.175 135.229 317.372 134.017C318.946 132.614 328.291 132.482 329.689 133.896L329.412 134.384C328.211 135.017 326.017 134.864 324.577 134.872L322.304 134.919Z"/></svg>